<?xml version="1.0" encoding="UTF-8"?><svg id="Layer_2" xmlns="http://www.w3.org/2000/svg" viewBox="0 0 504.98 121.14"><g id="Layer_1-2"><g><path d="M64.51,2.94c-.34,.5-.7,1-1.09,1.47-.39,.47-.77,.9-1.13,1.26-.18,.18-.35,.34-.51,.49-.13-.09-.28-.19-.44-.3-1.11-.76-2.63-1.56-4.63-2.42-1.96-.85-4.42-1.64-7.32-2.35-2.94-.72-6.4-1.08-10.27-1.08-4.26,0-8.16,.46-11.61,1.37-3.44,.91-6.58,2.15-9.33,3.69-2.76,1.55-5.2,3.37-7.25,5.42-2.03,2.03-3.75,4.19-5.14,6.42-1.18,1.9-2.16,3.81-2.91,5.67-.75,1.85-1.34,3.65-1.76,5.35-.43,1.7-.72,3.33-.89,4.84-.16,1.49-.24,2.85-.24,4.04,0,5.28,.93,10.2,2.76,14.62,1.84,4.45,4.54,8.32,8,11.52,3.45,3.19,7.68,5.68,12.58,7.41,4.85,1.72,10.35,2.59,16.34,2.59,3.61,0,6.86-.31,9.67-.93,2.78-.61,5.19-1.34,7.15-2.16,1.99-.83,3.51-1.59,4.62-2.32,.18-.12,.34-.22,.48-.31,.09,.09,.2,.2,.31,.33,.75,.81,1.48,1.71,2.17,2.69l.6,.85h4.13l.33-24.52h-4.77l-.33,1.59c-.51,2.44-1.48,4.85-2.88,7.16-1.41,2.33-3.16,4.42-5.2,6.2-2.04,1.78-4.4,3.23-7.01,4.33-2.57,1.07-5.37,1.62-8.32,1.62-3.77,0-7.24-.78-10.3-2.31s-5.76-3.68-7.93-6.33c-2.2-2.69-3.91-5.91-5.1-9.57-1.2-3.7-1.81-7.72-1.81-11.97,0-4.01,.58-7.98,1.73-11.78,1.14-3.78,2.8-7.21,4.94-10.19,2.09-2.92,4.72-5.3,7.81-7.08,3.04-1.74,6.56-2.63,10.48-2.63,2.84,0,5.55,.52,8.06,1.53,2.54,1.03,4.87,2.45,6.9,4.22,2.05,1.79,3.85,3.93,5.35,6.36,1.51,2.43,2.65,5.08,3.41,7.87l.44,1.61,4.61-.38V2.05h-4.1l-.59,.89Z"/><path d="M104.21,66.99c-1,.25-2.3,.44-3.86,.55l-1.85,.14v4.88h45.04v-4.57l-1.61-.32c-.69-.14-1.38-.24-2.06-.31-.48-.05-.91-.13-1.28-.25-.08-.03-.18-.06-.27-.12v-28.62c0-.26,.07-.58,.2-.94,.2-.54,.3-.73,.29-.73,.75-1.1,1.73-1.95,3-2.61,1.26-.66,2.86-.99,4.77-.99,1.39,0,2.51,.23,3.32,.68,.81,.45,1.43,1.06,1.9,1.87,.52,.9,.9,2.02,1.11,3.32,.23,1.45,.35,3.04,.35,4.72v23.24s-.1,.03-.16,.05c-1,.25-2.3,.44-3.86,.55l-1.85,.14v4.88h23.12v-4.63l-1.78-.2c-.53-.06-1.1-.13-1.7-.22-.54-.08-1.05-.19-1.54-.32-.19-.05-.36-.12-.49-.2v-27.21c0-2.17-.18-4.21-.55-6.08-.39-1.99-1.08-3.75-2.06-5.24-1.02-1.56-2.41-2.79-4.11-3.67-1.67-.86-3.72-1.29-6.07-1.29s-4.56,.41-6.56,1.22c-1.91,.77-3.63,1.72-5.12,2.8-.86,.63-1.65,1.29-2.35,1.97l.25-28.66h-3.2l-14.07,6.4v2.96l.95,.59c.85,.53,1.75,1.02,2.65,1.45,.67,.33,1.2,.65,1.56,.97l.07,.06s.14,.1,.17,.12c0,.07,0,.16,0,.26v52.98c0,.16-.02,.24-.02,.25,0,0-.06,.06-.27,.12-1.02,.3-2.19,.51-3.47,.62l-1.83,.16v.06l-1.14-.13c-.53-.06-1.1-.13-1.7-.22-.54-.08-1.05-.19-1.54-.32-.19-.05-.36-.12-.49-.2v-27.21c0-2.17-.18-4.21-.55-6.08-.39-1.99-1.08-3.75-2.06-5.24-1.02-1.56-2.41-2.79-4.11-3.67-1.67-.86-3.72-1.29-6.07-1.29s-4.56,.41-6.56,1.22c-1.91,.77-3.63,1.72-5.12,2.8-.86,.63-1.65,1.29-2.35,1.97l.25-28.66h-3.2l-14.07,6.4v2.96l.95,.59c.85,.53,1.75,1.02,2.65,1.45,.67,.33,1.2,.65,1.56,.97l.07,.06s.14,.1,.17,.12c0,.07,0,.16,0,.26v52.98c0,.16-.02,.24-.02,.25,0,0-.06,.06-.27,.12-1.02,.3-2.19,.51-3.47,.62l-1.83,.16v4.77h22.56v-4.57l-1.61-.32c-.69-.14-1.38-.24-2.06-.31-.48-.05-.91-.13-1.28-.25-.08-.03-.18-.06-.27-.12v-28.62c0-.26,.07-.58,.2-.94,.2-.54,.3-.73,.29-.73,.75-1.1,1.73-1.95,3-2.61,1.26-.66,2.86-.99,4.77-.99,1.39,0,2.51,.23,3.32,.68,.81,.45,1.43,1.06,1.9,1.87,.52,.9,.9,2.02,1.11,3.32,.23,1.45,.35,3.04,.35,4.72v23.24s-.1,.03-.16,.05Z"/><path d="M176.05,44.11c1.5,0,2.89-.48,4.15-1.43,1.77-1.34,2.14-2.88,2.14-3.92v-4.01c.03-.06,.09-.15,.2-.27,.32-.39,.79-.8,1.38-1.22,.6-.42,1.3-.78,2.08-1.05,.75-.26,1.51-.4,2.27-.4,1.21,0,2.17,.15,2.84,.44,.72,.31,1.26,.64,1.61,.97,.45,.43,.62,.71,.68,.84,.06,.12,.1,.22,.14,.31v8.18c-.37,.2-.77,.42-1.2,.64-.92,.47-1.98,1.04-3.17,1.71-1.2,.66-2.59,1.46-4.2,2.41-1.6,.94-3.45,2.08-5.52,3.39-2.2,1.4-4.09,3-5.62,4.76-1.72,1.98-2.59,4.12-2.59,6.34,0,1.91,.33,3.58,.98,4.96,.65,1.37,1.51,2.52,2.56,3.42,1.06,.9,2.26,1.54,3.57,1.9,1.19,.33,2.39,.49,3.56,.49,1.92,0,3.71-.31,5.32-.92,1.57-.59,3.02-1.39,4.33-2.38,1-.75,1.9-1.56,2.69-2.41,.54,1.48,1.39,2.66,2.55,3.53,1.99,1.51,4.3,2.27,6.85,2.27,1.57,0,3.04-.29,4.38-.86,1.35-.58,2.54-1.44,3.55-2.55,.94-1.05,1.72-2.25,2.3-3.56,.59-1.34,.93-2.74,1.01-4.16l.11-2.11h-4.2l-.4,1.48c-.14,.54-.4,.96-.77,1.29-.14,.12-.6,.4-1.86,.4-.73,0-1.35-.26-1.95-.81-.14-.13-.81-.92-.81-4.09,0-2.1,.01-4.03,.05-5.79,.03-1.79,.05-3.52,.05-5.21s.01-3.4,.05-5.19c.03-1.81,.05-3.85,.05-6.1,0-1.07-.03-2.19-.1-3.33-.08-1.4-.3-2.39-.69-3.11-.8-1.57-2.09-2.89-3.83-3.92-1.74-1.02-3.61-1.53-5.58-1.53-1.01,0-2.22,.21-3.69,.64-1.33,.39-2.81,.91-4.39,1.56-1.56,.64-3.23,1.42-4.97,2.32-1.73,.9-3.42,1.82-5.08,2.78-.48,.3-1.03,.63-1.66,.99-.77,.44-1.49,.96-2.16,1.55-.71,.63-1.31,1.35-1.78,2.14-.56,.93-.84,1.97-.84,3.08,0,1.46,.57,2.8,1.66,3.88,1.08,1.09,2.46,1.66,3.98,1.66Zm17.5,15.44c0,.49-.14,.83-.53,1.2-.83,.83-1.68,1.36-2.61,1.64-1.05,.32-2.3,.48-3.72,.48-1.22,0-2.13-.4-2.87-1.26-.81-.94-1.2-1.95-1.2-3.08s.4-2.09,1.21-3c1.03-1.14,2.29-2.21,3.73-3.17,1.53-1.02,3.12-1.97,4.73-2.84,.43-.23,.85-.46,1.25-.69v10.73Z"/><path d="M242.52,66.36c.72-1.13,1.29-2.23,1.71-3.27l.68-1.71-3.75-1.87-.99,1.41c-.68,.98-1.45,1.67-2.33,2.11-.9,.45-2.1,.67-3.58,.67-1.62,0-2.89-.5-3.87-1.53-.99-1.04-1.5-2.89-1.5-5.52v-22.53h18.66c0,3.54-.04,7.49-.09,12.01-.06,5.17-.09,10.78-.09,16.67,0,1.36,.39,2.7,1.16,3.97,.69,1.14,1.59,2.19,2.68,3.1,1.11,.94,2.4,1.66,3.83,2.14,1.4,.47,2.88,.71,4.4,.71,2.19,0,4.13-.27,5.78-.79,1.68-.53,3.17-1.3,4.44-2.28,.65-.5,1.24-1.04,1.77-1.62v4.5h24.05v-4.57l-1.61-.32c-.71-.14-1.45-.23-2.21-.27-.54-.03-1.04-.09-1.48-.19-.27-.06-.49-.14-.67-.25V23.51h-2.88l-10.46,3.41,1.26-2.48h-18.52v-8.12h-3.54l-8.54,8.12h-18.15v-8.12h-3.54l-14.64,13.92v3.88h6.81c0,3.54-.04,7.49-.09,12.01-.06,5.17-.09,10.78-.09,16.67,0,1.36,.39,2.7,1.16,3.97,.69,1.14,1.59,2.19,2.68,3.1,1.11,.94,2.4,1.66,3.83,2.14,1.4,.47,2.88,.71,4.4,.71,2.19,0,4.13-.27,5.78-.79,1.68-.53,3.17-1.3,4.44-2.28,1.27-.98,2.3-2.09,3.08-3.31Zm16.59-32.23h13.41l1.07-2.11,.1,.04c.81,.29,1.58,.61,2.28,.95,.69,.33,1.28,.66,1.7,.94,.02,.01,.04,.03,.05,.04,.03,.15,.05,.37,.05,.67v31.96c-.21,.18-.47,.33-.79,.45-.44,.16-.97,.28-1.56,.36-.72,.09-1.44,.17-2.16,.22l-1.59,.13c.39-.45,.75-.92,1.06-1.4,.72-1.13,1.29-2.23,1.71-3.27l.68-1.71-3.75-1.87-.99,1.41c-.68,.98-1.45,1.67-2.33,2.11-.9,.45-2.1,.67-3.58,.67-1.62,0-2.89-.5-3.87-1.53-.99-1.04-1.5-2.89-1.5-5.52v-22.53Z"/><path d="M283.22,17.8c1.97,0,3.66-.68,5.01-2.03,1.35-1.35,2.03-3.03,2.03-5s-.71-3.68-2.06-4.98c-1.35-1.3-3.02-1.96-4.98-1.96s-3.64,.66-4.98,1.96c-1.36,1.32-2.06,3-2.06,4.98s.7,3.58,2.08,4.96c1.38,1.38,3.05,2.08,4.96,2.08Z"/><path d="M330.17,64.19c1.12-2.06,1.69-4.5,1.69-7.25,0-3.67-1.16-6.81-3.45-9.36-2.22-2.47-4.96-4.12-8.11-4.89-1.22-.32-2.66-.66-4.29-1-1.61-.34-3.09-.66-4.41-.96-1.72-.43-3.13-1.06-4.22-1.89-.29-.22-1.17-.89-1.17-3.35,0-1.14,.19-2.13,.57-2.95,.38-.84,.87-1.53,1.45-2.06,.59-.54,1.25-.94,2.03-1.22,.8-.29,1.62-.44,2.44-.44,1.44,0,2.71,.25,3.77,.75,1.09,.51,2.09,1.25,2.96,2.2,.94,1.03,1.82,2.28,2.61,3.71,.84,1.54,1.7,3.24,2.55,5.06l.7,1.49,4.02-1-1.4-14.52-1.16-.44c-1.88-.71-3.88-1.32-5.94-1.8-2.13-.5-4.61-.75-7.36-.75-2.25,0-4.41,.33-6.41,.99-2.03,.67-3.85,1.65-5.4,2.92-1.57,1.29-2.84,2.85-3.77,4.64-.95,1.84-1.44,3.9-1.44,6.15,0,3.22,.86,6.03,2.57,8.36,1.69,2.32,3.94,3.97,6.67,4.9,1.29,.45,2.76,.88,4.37,1.27,1.58,.38,3.24,.73,4.9,1.04,1.71,.35,3,1,3.92,1.98,.85,.9,1.26,2.02,1.26,3.43,0,2.97-.69,5.13-2.04,6.45-1.39,1.35-3.26,2-5.71,2-1.69,0-3.08-.35-4.26-1.06-1.26-.77-2.36-1.76-3.25-2.94-.96-1.27-1.79-2.68-2.47-4.19-.71-1.58-1.31-3.1-1.78-4.52l-.46-1.37h-4.19v15.6l1.17,.53c2.18,.99,4.58,1.76,7.14,2.28,2.54,.52,5.28,.79,8.14,.79,2.45,0,4.82-.27,7.04-.8,2.31-.55,4.41-1.47,6.22-2.73,1.87-1.29,3.38-2.98,4.49-5.03Z"/><path d="M456.34,35.19c1.14-1.28,1.72-2.87,1.72-4.74,0-2-.81-3.75-2.33-5.06-1.46-1.25-3.23-1.88-5.27-1.88-2.34,0-4.46,.66-6.29,1.95-1.67,1.18-3.11,2.61-4.29,4.24-.19,.26-.38,.53-.56,.79l.1-6.98h-2.96l-13.84,5.39v3.26l1.23,.51c.65,.27,1.3,.61,1.95,1.02,.73,.46,1.37,.84,1.93,1.15,0,0,0,0,.01,0,0,.07,0,.16,0,.27v31.53c0,.08-.01,.12-.01,.12,0,0-.07,.09-.31,.19-.83,.35-1.86,.58-3.08,.69l-1.09,.09c.43-.65,.82-1.33,1.14-2.05,.59-1.34,.93-2.73,1.01-4.16l.11-2.11h-4.2l-.4,1.48c-.15,.54-.4,.96-.77,1.29-.14,.12-.6,.4-1.87,.4-.73,0-1.35-.26-1.95-.81-.14-.13-.81-.92-.81-4.09,0-2.1,.01-4.03,.05-5.8,.03-1.78,.05-3.52,.05-5.21s.01-3.4,.05-5.19c.03-1.81,.05-3.85,.05-6.1,0-1.07-.03-2.19-.1-3.33-.08-1.4-.3-2.39-.7-3.11-.8-1.57-2.09-2.89-3.83-3.92-1.74-1.02-3.61-1.53-5.58-1.53-1.01,0-2.22,.21-3.69,.64-1.33,.39-2.81,.91-4.39,1.56-1.56,.64-3.24,1.42-4.97,2.32-1.72,.89-3.41,1.82-5.08,2.79-.48,.3-1.03,.63-1.66,.98-.77,.44-1.49,.96-2.16,1.55-.71,.63-1.31,1.35-1.78,2.14-.56,.93-.84,1.97-.84,3.08,0,1.46,.57,2.8,1.66,3.88,1.08,1.09,2.46,1.66,3.98,1.66s2.89-.48,4.15-1.43c1.77-1.34,2.14-2.88,2.14-3.92v-4.01c.03-.06,.09-.14,.2-.27,.32-.39,.79-.8,1.38-1.22,.59-.42,1.29-.77,2.08-1.05,.75-.26,1.51-.4,2.27-.4,1.21,0,2.17,.15,2.84,.44,.72,.31,1.26,.64,1.62,.97,.45,.42,.62,.71,.68,.84,.06,.12,.1,.22,.14,.31v8.18c-.37,.2-.77,.42-1.2,.64-.92,.47-1.98,1.04-3.18,1.71-1.19,.66-2.59,1.46-4.2,2.41-1.61,.95-3.46,2.09-5.51,3.39-2.21,1.4-4.1,3.01-5.62,4.76-1.72,1.98-2.59,4.12-2.59,6.35,0,1.91,.33,3.58,.98,4.96,.65,1.37,1.51,2.52,2.56,3.42,1.06,.9,2.26,1.54,3.57,1.9,1.2,.33,2.39,.49,3.56,.49,1.92,0,3.71-.31,5.32-.92,1.57-.59,3.02-1.39,4.33-2.38,1-.75,1.9-1.56,2.69-2.41,.54,1.48,1.39,2.66,2.55,3.53,1.99,1.51,4.3,2.27,6.85,2.27,1.57,0,3.04-.29,4.38-.86,1.35-.58,2.54-1.44,3.54-2.55,.15-.17,.29-.34,.43-.52v3.84h24.89v-4.57l-1.61-.32c-.73-.15-1.55-.23-2.51-.27-.76-.03-1.49-.1-2.19-.21-.57-.09-1.08-.25-1.52-.47-.04-.02-.07-.04-.1-.06v-25.93c.33-.79,.7-1.62,1.11-2.46,.43-.9,.93-1.71,1.46-2.4,.51-.66,1.05-1.2,1.61-1.62,.37-.27,.69-.4,1-.4,.65,0,.88,.14,.92,.16,.4,.27,.78,.59,1.12,.93,.56,.56,1.22,1.06,1.95,1.48,.91,.53,2.01,.78,3.38,.78,1.62,0,3.1-.7,4.29-2.02Zm-52.27,24.36c0,.5-.14,.83-.53,1.2-.83,.83-1.68,1.37-2.61,1.64-1.05,.32-2.3,.48-3.72,.48-1.22,0-2.13-.4-2.87-1.26-.81-.94-1.2-1.95-1.2-3.08s.4-2.09,1.21-3c1.03-1.14,2.29-2.21,3.73-3.17,1.53-1.02,3.12-1.97,4.73-2.84,.43-.23,.85-.46,1.25-.69v10.73Z"/><path d="M503.2,67.73c-.53-.06-1.1-.13-1.7-.22-.54-.08-1.05-.19-1.54-.32-.19-.05-.36-.12-.49-.2v-27.21c0-2.17-.18-4.21-.55-6.08-.39-1.99-1.08-3.75-2.06-5.24-1.02-1.56-2.4-2.79-4.11-3.67-1.68-.86-3.72-1.29-6.07-1.29s-4.56,.41-6.56,1.22c-1.91,.77-3.63,1.72-5.12,2.8-.86,.63-1.65,1.29-2.35,1.97l.25-28.66h-3.2l-14.07,6.4v2.96l.95,.59c.86,.53,1.75,1.02,2.65,1.45,.67,.32,1.2,.65,1.56,.97l.07,.06s.14,.1,.17,.12c0,.07,0,.16,0,.26v52.98c0,.16-.02,.24-.02,.25,0,0-.07,.06-.27,.12-1.02,.3-2.19,.51-3.47,.62l-1.83,.16v4.77h22.56v-4.57l-1.61-.32c-.68-.14-1.38-.24-2.06-.31-.48-.05-.91-.13-1.29-.25-.08-.02-.18-.06-.27-.11v-28.62c0-.26,.07-.58,.2-.94,.2-.54,.3-.73,.29-.73t0,0c.75-1.1,1.73-1.95,3-2.61,1.26-.66,2.87-.99,4.77-.99,1.39,0,2.51,.23,3.32,.68,.81,.45,1.43,1.06,1.9,1.87,.52,.9,.9,2.02,1.11,3.32,.23,1.45,.35,3.04,.35,4.72v23.24s-.1,.03-.17,.05c-1,.25-2.3,.44-3.86,.55l-1.85,.14v4.88h23.12v-4.63l-1.78-.2Z"/><path d="M378.76,82.28c.94-2.11,1.42-4.32,1.42-6.6,0-2.13-.38-4.11-1.14-5.87-.76-1.77-1.87-3.35-3.31-4.72-1.42-1.35-3.15-2.43-5.12-3.21-1.97-.77-4.19-1.17-6.61-1.17h-14.92c-.99,0-2.01-.06-3.05-.17-.93-.1-1.79-.31-2.55-.62-.67-.27-1.2-.61-1.63-1.06-.18-.18-.38-.48-.38-1.09,0-.4,.11-.88,.9-1.43,.86-.59,2.1-.94,3.69-1.05,1.11,0,2.08,.06,2.88,.17,.98,.14,1.96,.21,2.94,.21,6.43,0,11.59-1.37,15.34-4.06,3.96-2.84,5.96-7.11,5.96-12.68,0-1.75-.23-3.29-.7-4.6,.04,.02,.07,.04,.11,.05,.92,.45,1.79,.84,2.57,1.16,1.01,.42,1.79,.62,2.45,.62,1.49,0,2.83-.6,3.86-1.72,.98-1.08,1.5-2.4,1.5-3.82,0-1.55-.54-2.95-1.55-4.06-1.06-1.16-2.47-1.77-4.08-1.77-.99,0-1.89,.16-2.69,.46-.65,.25-1.27,.55-1.84,.87-.41,.23-.86,.43-1.35,.61-.36,.13-.8,.2-1.31,.2-.67,0-1.24-.03-1.68-.08-.35-.04-.81-.15-1.36-.33-2.08-1.09-4.11-1.88-6.06-2.34-1.98-.47-4.26-.71-6.76-.71-2.82,0-5.47,.41-7.87,1.22-2.41,.81-4.54,1.94-6.33,3.36-1.83,1.45-3.29,3.19-4.32,5.17-1.05,2.02-1.58,4.21-1.58,6.52,0,3.6,.9,6.63,2.68,9.03,.84,1.14,1.85,2.14,3.02,3.02-.06,.02-.11,.05-.17,.07-1.52,.67-2.87,1.52-4.01,2.52-1.17,1.03-2.11,2.19-2.78,3.46-.71,1.34-1.07,2.79-1.07,4.29,0,2.97,1.1,5.41,3.28,7.22,1.02,.85,2.25,1.54,3.67,2.08-.03,.02-.06,.04-.09,.06-1.43,.9-2.74,1.88-3.9,2.9-1.21,1.07-2.23,2.22-3.04,3.41-.86,1.28-1.31,2.71-1.38,4.26h-10.67v3.13c1.32,0,2.28,.26,2.89,.78s1.33,2.13,2.16,4.84l9.31,30.3h4.54l8.58-25.67,9.99,25.67h4.4l7.67-27.48c1.13-4.03,2.12-6.44,2.96-7.24,.85-.8,1.84-1.2,2.99-1.2v-2.94h3.52Zm-32.51-46.63c.37-1.33,.92-2.53,1.63-3.55,.68-.98,1.49-1.73,2.48-2.3,.94-.54,1.99-.81,3.2-.81,1.35,0,2.54,.26,3.52,.76,1.02,.52,1.84,1.19,2.5,2.05,.69,.89,1.22,1.95,1.58,3.14,.38,1.24,.57,2.58,.57,3.99,0,1.55-.2,3.05-.58,4.46-.37,1.36-.94,2.58-1.67,3.63-.71,1.01-1.56,1.8-2.59,2.41-.97,.57-2.09,.85-3.42,.85-2.13,0-3.91-.88-5.42-2.69-1.6-1.91-2.38-4.44-2.38-7.72,0-1.43,.19-2.85,.58-4.22Zm20.5,52.87c0,.64-.16,1.56-.48,2.76l-4.29,15.52-9.68-24.72h-4.37l-8.07,24.72-5.36-17.07c-.3-1-.45-1.86-.45-2.6,0-1.28,1.04-1.92,3.13-1.92v-2.94h4.67c-.3-.79-.47-1.64-.47-2.59,0-1.53,.43-2.89,1.32-4.18,.82-1.18,2.44-2.1,4.81-2.72,.81-.11,1.87-.23,3.15-.35,1.3-.12,2.59-.18,3.83-.18,3.5,0,6.27,.13,8.22,.4,1.83,.25,3.34,.67,4.55,1.28,.67,.31,1.28,.95,1.82,1.89,.57,.99,.86,2.23,.86,3.67,0,.93-.13,1.78-.37,2.58h-6.57v3.13c2.5,0,3.75,1.1,3.75,3.3Z"/><path d="M99.53,92.98h3.19c.13-1.69,.5-3.15,1.11-4.39,.61-1.23,1.37-2.05,2.27-2.47,.9-.41,2.31-.62,4.23-.62h3.22v27.03c0,1.71-.29,2.92-.86,3.63-.57,.71-1.82,1.06-3.74,1.06h-.9v3.13h21.13v-3.13h-.99c-1.9,0-3.15-.34-3.74-1.03-.59-.69-.89-1.91-.89-3.65v-27.03h3.3c2.39,0,4.13,.51,5.22,1.54s1.94,3,2.54,5.94h3.19v-10.89h-38.29v10.89Z"/><path d="M161.26,81.41c-3.74,0-7.26,.79-10.54,2.36-3.28,1.57-5.88,3.99-7.8,7.27-1.92,3.27-2.88,6.63-2.88,10.07,0,3.14,.73,6.32,2.2,9.52,1.47,3.21,3.93,5.76,7.38,7.66,3.45,1.9,7.42,2.85,11.92,2.85,6.56,0,11.76-1.93,15.57-5.78,3.82-3.86,5.73-8.46,5.73-13.82,0-5.64-1.91-10.41-5.74-14.29-3.83-3.88-9.11-5.83-15.84-5.83Zm7.36,32.46c-1.66,2.38-4.11,3.57-7.36,3.57s-5.47-1.3-7.05-3.91-2.37-6.85-2.37-12.74c0-5.45,.79-9.43,2.37-11.93,1.58-2.5,3.97-3.75,7.17-3.75,3.39,0,5.85,1.34,7.41,4.03,1.55,2.69,2.33,6.76,2.33,12.22,0,5.96-.83,10.13-2.48,12.51Z"/><path d="M216.73,83.78c-1.77-.94-3.71-1.51-5.83-1.72-2.12-.21-5.11-.31-8.99-.31l-15.52,.34v3.13h.93c1.86,0,3.09,.34,3.68,1.03s.89,1.9,.89,3.65v22.63c0,1.71-.29,2.92-.86,3.63-.57,.71-1.81,1.06-3.71,1.06h-.68v3.13h20.74v-3.13h-.87c-1.88,0-3.12-.34-3.71-1.03-.59-.69-.89-1.91-.89-3.65v-9.11h2.82c3.8,0,6.86-.29,9.18-.86,2.32-.57,4.26-1.75,5.81-3.53s2.33-3.92,2.33-6.42c0-1.84-.45-3.54-1.34-5.09-.89-1.55-2.22-2.8-3.99-3.74Zm-6.97,14.29c-1,1.31-2.99,1.96-5.98,1.96h-1.86v-14.87c2.5,0,4.32,.18,5.45,.55,1.13,.37,2.06,1.16,2.79,2.37s1.1,2.8,1.1,4.75c0,2.18-.5,3.93-1.5,5.23Z"/><path d="M266.61,85.22c3.52,0,5.28,2.09,5.28,6.26v14.02l-20.96-23.42h-12.92v3.13c3.65,0,5.47,1.95,5.47,5.84v19.52c0,1.67-.12,2.9-.37,3.68-.25,.78-.82,1.47-1.72,2.06-.9,.59-1.97,.89-3.19,.89v3.13h14.36v-3.13c-1.6,0-2.91-.4-3.94-1.21s-1.54-2.62-1.54-5.45v-17.58l24.8,27.99h3.61v-29.37c0-1.56,.15-2.75,.45-3.57s.87-1.49,1.71-2.02c.84-.53,1.74-.79,2.69-.79v-3.13h-13.74v3.13Z"/><path d="M313.18,112.79c-.93,1.56-1.98,2.65-3.16,3.27-1.18,.62-3.01,.93-5.52,.93-1.84,0-3.22-.18-4.12-.55-.9-.37-1.46-.83-1.66-1.38-.21-.55-.31-1.74-.31-3.54v-9.45h3.67c1.9,0,3.08,.44,3.54,1.33,.46,.88,.69,1.87,.69,2.96,0,.11,0,.29-.03,.54h3.19v-12.98h-3.19c-.08,1.88-.39,3.14-.94,3.78-.56,.64-1.68,.96-3.37,.96h-3.55v-13.2h7.14c1.67,0,2.86,.15,3.57,.44,.71,.29,1.41,.95,2.1,1.98,.7,1.03,1.33,2.4,1.89,4.13h3.16l-.56-9.9h-32.59v3.08h.71c1.86,0,3.09,.34,3.68,1.03,.59,.69,.89,1.9,.89,3.65v22.68c0,1.71-.29,2.92-.86,3.63-.57,.71-1.81,1.06-3.71,1.06h-.71v3.13h34.99l.25-12.56h-3.16c-.41,1.77-1.09,3.43-2.02,4.99Z"/><path d="M400.71,100.32c-1.34-1.03-3.4-2.21-6.18-3.53-3.1-1.45-5.13-2.44-6.09-2.98-.96-.54-1.72-1.21-2.29-2.03-.56-.82-.85-1.71-.85-2.67,0-1.24,.44-2.28,1.31-3.1,.87-.83,2.05-1.24,3.54-1.24,1.97,0,3.75,.81,5.33,2.43s2.65,3.68,3.22,6.18h3.16v-11.29h-3.25c-.25,1.17-.55,2.03-.93,2.6-2.28-2.18-5.04-3.27-8.29-3.27s-5.84,1.07-8.2,3.2c-2.36,2.13-3.54,4.85-3.54,8.14,0,2.05,.46,3.87,1.38,5.45,.92,1.58,2.14,2.87,3.67,3.88,1.52,1.01,4.46,2.59,8.8,4.75,2.26,1.13,3.69,2.15,4.29,3.08,.6,.92,.9,1.84,.9,2.77,0,1.3-.48,2.43-1.44,3.39-.96,.96-2.25,1.44-3.87,1.44-2.18,0-4.21-.84-6.09-2.51s-3.29-4.47-4.23-8.38h-3.39v13.09h3.39c.21-1.22,.53-2.26,.96-3.1,1.13,1.37,2.64,2.47,4.53,3.3,1.89,.83,3.82,1.24,5.8,1.24,3.46,0,6.44-1.12,8.94-3.37,2.5-2.25,3.75-5.06,3.75-8.45,0-1.82-.39-3.52-1.17-5.09s-1.84-2.87-3.17-3.91Z"/></g></g></svg>