<svg width="26" height="26" viewBox="0 0 26 26" fill="none" xmlns="http://www.w3.org/2000/svg">
<path d="M6.49998 20.5834H9.74998V14.0834H16.25V20.5834H19.5V10.8334L13 5.95841L6.49998 10.8334V20.5834ZM6.49998 22.7501C5.90415 22.7501 5.39426 22.5381 4.97031 22.1142C4.54565 21.6895 4.33331 21.1792 4.33331 20.5834V10.8334C4.33331 10.4904 4.41023 10.1654 4.56406 9.85842C4.71717 9.55147 4.92915 9.29869 5.19998 9.10008L11.7 4.22508C11.8986 4.08064 12.1062 3.9723 12.3229 3.90008C12.5396 3.82786 12.7653 3.79175 13 3.79175C13.2347 3.79175 13.4604 3.82786 13.6771 3.90008C13.8937 3.9723 14.1014 4.08064 14.3 4.22508L20.8 9.10008C21.0708 9.29869 21.2831 9.55147 21.437 9.85842C21.5901 10.1654 21.6666 10.4904 21.6666 10.8334V20.5834C21.6666 21.1792 21.4547 21.6895 21.0307 22.1142C20.6061 22.5381 20.0958 22.7501 19.5 22.7501H14.0833V16.2501H11.9166V22.7501H6.49998Z" fill="black"/>
</svg>
